<?xml version="1.0" encoding="UTF-8"?>
<svg id="Capa_2" version="1.1" xmlns="http://www.w3.org/2000/svg" xmlns:xlink="http://www.w3.org/1999/xlink" width="400" height="400"  viewBox="0 0 400 400">
  <defs>
    <style>
      .cls-1 {
        fill:#fff;
      }
      .cls-2 {
        fill:#0075bf;
      }
      .cls-3 {
        clip-path:url(#clippath);
      }
      .cls-4 {
        fill:none;
      }
    </style>
    <clipPath id="clippath">
      <rect class="cls-4" width="400" height="400" />
    </clipPath>
  </defs>
  <g id="ARTE">
    <g class="cls-3">
      <rect class="cls-2" x="0" y="0" width="400" height="400" />
      <path class="cls-1" d="M260,190c-.06-.39-.14-.8-.22-1.21l-.15-.77c-.17-1.04-.41-2-.64-2.95l-.27-1.12c-.67-2.39-1.48-5.1-2.58-7.68-.39-1.02-.79-1.85-1.18-2.68l-2.47-4.78c-5.59-9.7-13.65-17.78-23.33-23.38-2.26-1.32-4.71-2.53-7.48-3.71l-1.98-.8c-.34-.13-.72-.26-1.1-.39l-3.59-1.17c-.34-.11-.68-.22-1.03-.3l-2.2-.55c-.3-.07-.64-.14-.97-.21l-3.92-.73c-.36-.06-.72-.12-1.09-.16-.73-.07-1.5-.16-2.28-.26l-6.26-.3c-2.75,.03-5.51,.21-8.2,.54-.42,.05-.78,.11-1.14,.17l-3.8,.69c-.37,.07-.75,.14-1.12,.23l-2.12,.53c-5.26,1.42-10.43,3.56-15.28,6.36-.43,.23-.74,.44-1.05,.63l-3.17,2.06c-.33,.22-.67,.44-.99,.67l-1.74,1.31c-2.34,1.82-4.4,3.62-6.25,5.48-4.07,4.11-7.48,8.55-10.13,13.2l-2.49,4.81c-.39,.84-.79,1.69-1.12,2.55-1.16,2.73-1.97,5.44-2.68,7.99l-.23,.97c-.24,.97-.47,1.93-.63,2.83l-.84,5.68-.3,5.17c-.02,.45-.03,.89-.02,1.33l.02,.84c.02,1.09,.03,2.17,.14,3.24l.07,.88c.03,.38,.05,.76,.1,1.14l1.5,8.57c.07,.33,.14,.66,.24,.98,1.48,5.27,3.41,9.99,5.78,14.19,5.57,9.94,12.86,16.44,17.99,20.14l1.29,.92c.39,.28,.73,.52,1.08,.74l1.06,.66c.52,.34,1.04,.66,1.56,.97l2.55,1.43c.44,.23,.96,.48,1.47,.73l.96,.47c3.29,1.54,6.37,2.72,9.05,3.48l4.22,1.12c.74,.17,1.53,.32,2.28,.46l1.45,.28c.88,.13,1.88,.26,2.81,.39,.89,.11,1.47,.16,2.01,.19l.96,.08c1.11,.11,2.02,.13,2.73,.15l2.13,.06,2.1-.06c.72-.02,1.62-.04,2.7-.14l1-.08c.54-.04,1.12-.08,1.73-.16,1.08-.15,2.14-.29,3.27-.47l1.14-.22c.79-.15,1.62-.3,2.48-.5l4.03-1.07c2.79-.79,5.87-1.97,9.26-3.56l.89-.43c.5-.24,1.01-.49,1.51-.76l2.57-1.45c.45-.27,.98-.6,1.52-.95l.97-.61c.42-.25,.76-.49,1.1-.75l1.36-.97c5.08-3.68,12.36-10.18,17.92-20.12,2.37-4.24,4.3-8.96,5.72-14.04,.14-.44,.2-.78,.28-1.12l1.24-6.51,.26-2.07c.05-.4,.08-.81,.1-1.21l.05-.76c.1-1.11,.12-2.2,.14-3.28v-.74c.04-.56,.02-.98,0-1.39l-.76-8.77Zm-62.51,63.53s-39.91-21.68-19.83-64.57c8.33-17.79,19.8-33.57,19.8-33.57,0,0,9.48,12.82,19.69,33.57,19.49,39.63-19.66,64.57-19.66,64.57Z"/>
    </g>
  </g>
</svg>